<?xml version="1.0" encoding="utf-8"?>
<!-- Uploaded to: SVG Repo, www.svgrepo.com, Generator: SVG Repo Mixer Tools -->
<svg width="800px" height="800px" viewBox="0 0 64 64" xmlns="http://www.w3.org/2000/svg" xmlns:xlink="http://www.w3.org/1999/xlink" aria-hidden="true" role="img" class="iconify iconify--emojione" preserveAspectRatio="xMidYMid meet">
<path d="M32.2 36.9C15.1 36.9 2 29.8 2 45.7C2 58.5 18.9 62 31.8 62c15 0 30.2-3.5 30.2-16.3c0-15.9-12.2-8.8-29.8-8.8" fill="#89664c">
</path>
<path d="M31.7 20.9c-9.6 0-24.5 1.1-24.5 12.6c0 16.8 49.5 16.8 49.5 0c.1-11.5-14.8-12.6-25-12.6" fill="#9b7861">
</path>
<path d="M49 16.7C44.4 6.4 22.6 17 26.4 4.5c.6-1.9.5-2.7-.9-2.4C17.7 3.7 12 11.7 14 18.4c6.4 21.4 41.3 12.3 35-1.7" fill="#a88673">
</path>
<path d="M28.8 34.3c0 4-3.2 7.2-7.2 7.2s-7.2-3.2-7.2-7.2s3.2-7.2 7.2-7.2s7.2 3.2 7.2 7.2" fill="#ffffff">
</path>
<circle cx="23.6" cy="34.3" r="3.6" fill="#231f20">
</circle>
<path d="M49.6 34.3c0 4-3.2 7.2-7.2 7.2s-7.2-3.2-7.2-7.2s3.2-7.2 7.2-7.2c3.9 0 7.2 3.2 7.2 7.2" fill="#ffffff">
</path>
<g fill="#231f20">
<circle cx="40.4" cy="34.3" r="3.6">
</circle>
<path d="M38 50.6c0 3.3-2.7 6-6 6s-6-2.7-6-6s2.7-6 6-6s6 2.7 6 6">
</path>
</g>
</svg>